<svg width="40" height="40" viewBox="0 0 40 40" fill="none" xmlns="http://www.w3.org/2000/svg">
<path d="M28.857 20.29C29.0149 20.1276 29.0149 19.869 28.857 19.7067L22.097 12.8333C21.6277 12.3546 21.4909 11.6412 21.7499 11.0228C22.0089 10.4044 22.6132 10.0014 23.2836 10H29.9653C30.4119 10.001 30.8394 10.1811 31.152 10.5L39.3536 18.8333C39.9889 19.4814 39.9889 20.5186 39.3536 21.1667L31.1536 29.5C30.8406 29.8193 30.4125 29.9995 29.9653 30H23.2836C22.6132 29.9986 22.0089 29.5956 21.7499 28.9772C21.4909 28.3588 21.6277 27.6454 22.097 27.1667L28.857 20.29Z" fill="#3279C6"/>
<path opacity="0.6" d="M17.2118 20.29C17.3715 20.1283 17.3715 19.8683 17.2118 19.7067L10.4485 12.8333C9.97898 12.3543 9.84235 11.6406 10.1018 11.022C10.3612 10.4035 10.9661 10.0008 11.6368 10H14.1818C14.6278 10.0014 15.0546 10.1815 15.3668 10.5L23.5685 18.8333C24.2037 19.4814 24.2037 20.5186 23.5685 21.1667L15.3685 29.5C15.0559 29.8189 14.6284 29.999 14.1818 30H11.6368C10.9661 29.9992 10.3612 29.5965 10.1018 28.978C9.84235 28.3594 9.97898 27.6457 10.4485 27.1667L17.2118 20.29Z" fill="#3279C6"/>
<path opacity="0.4" d="M7.397 20.2919C7.55581 20.1299 7.55581 19.8706 7.397 19.7086L0.64367 12.8336C0.197992 12.4149 0.0173988 11.7857 0.173147 11.1944C0.328897 10.603 0.795974 10.1445 1.39008 9.99962C1.98419 9.85478 2.6099 10.0469 3.02034 10.5002L10.637 18.2519C11.5819 19.2272 11.5819 20.7766 10.637 21.7519L3.02034 29.5002C2.6099 29.9535 1.98419 30.1457 1.39008 30.0008C0.795974 29.856 0.328897 29.3974 0.173147 28.8061C0.0173988 28.2147 0.197992 27.5856 0.64367 27.1669L7.397 20.2919Z" fill="#3279C6"/>
</svg>
