<svg width="208" height="39" viewBox="0 0 208 39" fill="none" xmlns="http://www.w3.org/2000/svg">
<path d="M81.2371 26.8909C79.3362 26.8909 78.6347 26.0651 78.6347 24.7482C78.6347 23.2305 79.4946 22.4493 81.7349 22.4493H84.6993V23.3198C84.6993 25.641 83.251 26.8909 81.2371 26.8909ZM76.0777 24.9938C76.0777 26.8016 77.1412 28.7434 80.4677 28.7434C82.3911 28.7434 83.7262 28.0069 84.654 26.8463L84.9708 28.4533H87.0527V19.7933C87.0527 16.0883 84.8124 15.441 82.1422 15.441C80.1282 15.441 77.4807 16.0213 76.8471 19.0121H79.4041C79.7209 17.8962 80.4903 17.2489 82.1196 17.2489C83.4547 17.2489 84.7219 17.7176 84.7219 19.8156V20.7307H81.9159C78.499 20.7307 76.0777 21.8467 76.0777 24.9938ZM69.289 28.4533H71.6877V20.5076C71.6877 18.655 72.8417 17.8292 74.3126 17.8292C74.8105 17.8292 75.3309 17.8515 75.8514 17.9408V15.6419C75.3988 15.4857 74.9915 15.4634 74.5842 15.4634C73.2491 15.4634 72.2081 16.2445 71.6877 17.3382L71.3935 15.7982H69.289V28.4533ZM154.374 28.4533H156.772V20.5076C156.772 18.655 157.926 17.8292 159.397 17.8292C159.895 17.8292 160.415 17.8515 160.936 17.9408V15.6419C160.483 15.4857 160.076 15.4634 159.669 15.4634C158.334 15.4634 157.293 16.2445 156.772 17.3382L156.478 15.7982H154.374V28.4533ZM109.274 17.8292V15.7535H106.649V12.1378L104.183 12.5172V15.7535H102.327V17.8292H104.183V25.8865C104.183 27.6944 104.862 28.788 107.554 28.788C108.143 28.788 109.025 28.6765 109.568 28.5202V26.7123C109.003 26.8686 108.482 26.8909 108.098 26.8909C106.966 26.8909 106.649 26.3552 106.649 25.1946V17.8292H109.274ZM181.664 17.8292V15.7535H179.016V12.1378L176.55 12.5172V15.7535H174.694V17.8292H176.55V25.8865C176.55 27.6944 177.229 28.788 179.922 28.788C180.51 28.788 181.392 28.6765 181.936 28.5202V26.7123C181.37 26.8686 180.849 26.8909 180.465 26.8909C179.333 26.8909 179.016 26.3552 179.016 25.1946V17.8292H181.664ZM145.91 26.8016C143.602 26.8016 142.109 25.2169 142.109 22.0699C142.109 19.0568 143.647 17.3605 145.933 17.3605C148.241 17.3605 149.599 19.0345 149.599 22.2038C149.599 25.2839 148.196 26.8016 145.91 26.8016ZM188.815 26.8016C186.507 26.8016 185.013 25.2169 185.013 22.0699C185.013 19.0568 186.552 17.3605 188.837 17.3605C191.145 17.3605 192.503 19.0345 192.503 22.2038C192.526 25.2839 191.1 26.8016 188.815 26.8016ZM162.61 28.4533H164.964V21.1325C164.964 19.0345 165.892 17.5614 168.109 17.5614C170.191 17.5614 170.825 18.4318 170.825 20.5745V28.4309H173.223V19.9049C173.223 16.9811 171.979 15.4634 169.173 15.4634C167.249 15.4634 165.824 16.1553 164.964 17.3605L164.67 15.7535H162.633V28.4533H162.61ZM90.1528 28.4533H92.4836V21.1325C92.4836 19.0345 93.4114 17.5614 95.629 17.5614C97.7109 17.5614 98.3445 18.4318 98.3445 20.5745V28.4309H100.743V19.9049C100.743 16.9811 99.4985 15.4634 96.6926 15.4634C94.7691 15.4634 93.3435 16.1553 92.4836 17.3605L92.1894 15.7535H90.1528V28.4533ZM197.323 28.4533H199.654V21.1325C199.654 19.0345 200.582 17.5614 202.799 17.5614C204.881 17.5614 205.515 18.4318 205.515 20.5745V28.4309H207.913V19.9049C207.913 16.9811 206.669 15.4634 203.863 15.4634C201.939 15.4634 200.514 16.1553 199.654 17.3605L199.36 15.7535H197.323V28.4533ZM125.68 11.4012V9.34785H111.99V11.4012H117.579V28.4309H120.159V11.4012H125.68ZM126.925 28.4533H129.256V21.1325C129.256 19.0345 130.161 17.5614 132.401 17.5614C134.483 17.5614 135.116 18.4318 135.116 20.5745V28.4309H137.515V19.9049C137.515 16.9811 136.27 15.4634 133.464 15.4634C131.541 15.4634 130.115 16.1553 129.256 17.3605V9.34785H126.925V28.4533ZM59.6717 20.887H64.2428V25.1277C62.8398 26.3329 60.7127 26.8016 58.9929 26.8016C54.6934 26.8016 52.2495 24.0563 52.2495 19.2353C52.2495 14.1242 54.8744 11.2896 58.9476 11.2896C61.3689 11.2896 63.1792 12.1378 64.899 13.7448L66.4151 12.0485C64.8764 10.3745 62.2288 9.14697 59.2192 9.14697C53.1546 9.14697 49.5566 13.3207 49.5566 19.1684C49.5566 24.9045 52.5436 28.8773 59.0381 28.8773C62.6135 28.8773 65.3968 27.3373 66.7772 25.8642V18.9452H59.6944V20.887H59.6717ZM146.091 15.441C141.837 15.441 139.597 18.3426 139.597 22.1592C139.597 26.1097 141.815 28.7211 145.797 28.7211C149.757 28.7211 152.224 26.1544 152.224 22.0922C152.224 17.9185 149.938 15.441 146.091 15.441ZM188.996 15.441C184.719 15.441 182.501 18.3426 182.501 22.1592C182.501 26.1097 184.719 28.7211 188.702 28.7211C192.662 28.7211 195.128 26.1544 195.128 22.0922C195.128 17.9185 192.843 15.441 188.996 15.441Z" fill="#535455"/>
<path d="M20.1625 11.6912C23.1948 12.651 25.5935 14.8606 27.2227 18.03C27.449 18.454 27.5622 19.079 27.4264 19.4584C27.4717 19.3022 27.5396 19.1682 27.5848 19.012C31.477 6.95954 17.696 -1.1424 10.7037 2.49566C10.5679 2.56262 10.4321 2.62958 10.2964 2.71885C1.3127 7.98623 -1.71957 19.3914 3.39456 28.3415C-0.27132 21.4448 7.92033 7.85231 20.1625 11.6912Z" fill="url(#paint0_linear_1_650)"/>
<path d="M12.7411 19.0124C13.7142 16.0216 15.9544 13.6558 19.1677 12.0488C19.5977 11.8256 20.2313 11.714 20.616 11.8479C20.4576 11.8033 20.3218 11.7363 20.1634 11.6917C7.94381 7.85273 -0.270464 21.4452 3.39541 28.3419C3.4633 28.4759 3.53118 28.6098 3.6217 28.7437C8.98474 37.6268 20.5255 40.6176 29.5996 35.5511C22.6299 39.1668 8.84896 31.0649 12.7411 19.0124Z" fill="url(#paint1_linear_1_650)"/>
<path d="M20.1628 26.333C17.1305 25.3733 14.7319 23.1637 13.1026 19.9943C12.8763 19.5703 12.7631 18.9453 12.8989 18.5659C12.8537 18.7221 12.7858 18.856 12.7405 19.0123C8.84835 31.0647 22.6293 39.1667 29.6216 35.5509C29.7574 35.484 29.8932 35.417 30.029 35.3277C39.0352 30.038 42.0675 18.6552 36.9308 9.70508C40.574 16.5795 32.3824 30.172 20.1628 26.333Z" fill="url(#paint2_linear_1_650)"/>
<path d="M27.5843 19.0122C26.6112 22.003 24.371 24.3689 21.1577 25.9759C20.7277 26.1991 20.0941 26.3107 19.7094 26.1768C19.8678 26.2214 20.0036 26.2883 20.162 26.333C32.3816 30.1719 40.5958 16.5794 36.9073 9.68272C36.8395 9.5488 36.7716 9.41488 36.6811 9.28097C31.318 0.397848 19.7773 -2.59295 10.7031 2.47355C17.6954 -1.14219 31.4764 6.95975 27.5843 19.0122Z" fill="url(#paint3_linear_1_650)"/>
<defs>
<linearGradient id="paint0_linear_1_650" x1="22.6291" y1="9.05756" x2="0.933852" y2="13.9817" gradientUnits="userSpaceOnUse">
<stop stop-color="#3F4040"/>
<stop offset="1" stop-color="#010101" stop-opacity="0.1"/>
</linearGradient>
<linearGradient id="paint1_linear_1_650" x1="8.82633" y1="18.9901" x2="12.9756" y2="37.9944" gradientUnits="userSpaceOnUse">
<stop stop-color="#3F4040"/>
<stop offset="1" stop-color="#010101" stop-opacity="0.1"/>
</linearGradient>
<linearGradient id="paint2_linear_1_650" x1="17.8773" y1="27.8061" x2="37.5603" y2="26.0858" gradientUnits="userSpaceOnUse">
<stop stop-color="#3F4040"/>
<stop offset="1" stop-color="#010101" stop-opacity="0.1"/>
</linearGradient>
<linearGradient id="paint3_linear_1_650" x1="30.6618" y1="19.3247" x2="32.2312" y2="5.37343" gradientUnits="userSpaceOnUse">
<stop stop-color="#3F4040"/>
<stop offset="1" stop-color="#010101" stop-opacity="0.1"/>
</linearGradient>
</defs>
</svg>
