<svg width="110" height="24" viewBox="0 0 110 24" fill="none" xmlns="http://www.w3.org/2000/svg">
<path d="M49.5801 12.8145C49.5801 11.8116 49.7467 10.8755 50.0798 9.99285C50.413 9.11023 50.8872 8.34798 51.5022 7.6927C52.1173 7.03743 52.8478 6.51589 53.7191 6.14144C54.5777 5.767 55.5388 5.56641 56.5896 5.56641C57.0765 5.56641 57.5507 5.6199 57.9992 5.71351C58.4477 5.82049 58.8577 5.95422 59.255 6.12807C59.6394 6.30192 59.9982 6.50251 60.3314 6.74322C60.6518 6.98394 60.9465 7.22465 61.2028 7.47874L61.3822 5.98097H64.022V19.6347H61.3822L61.2028 18.137C60.9337 18.4044 60.6389 18.6451 60.3186 18.8858C59.9854 19.1132 59.6266 19.3138 59.2422 19.4876C58.8577 19.6615 58.4477 19.7952 57.9992 19.9022C57.5507 20.0092 57.0893 20.0493 56.5896 20.0493C55.5516 20.0493 54.5905 19.8621 53.732 19.4876C52.8734 19.1132 52.143 18.5916 51.5279 17.9364C50.9128 17.2811 50.4386 16.5188 50.1055 15.6362C49.7467 14.7536 49.5801 13.8175 49.5801 12.8145ZM52.6684 12.8012C52.6684 13.4564 52.7837 14.0582 53.0015 14.6065C53.2194 15.1548 53.5269 15.6229 53.8985 16.024C54.283 16.4119 54.7187 16.7194 55.2312 16.9334C55.7438 17.1474 56.282 17.2544 56.8715 17.2544C57.4481 17.2544 57.9864 17.1474 58.4989 16.9334C59.0115 16.7194 59.4472 16.4119 59.8316 16.024C60.2032 15.6362 60.5108 15.1682 60.7286 14.6199C60.9465 14.0716 61.0618 13.4698 61.0618 12.8145C61.0618 12.1726 60.9465 11.5709 60.7286 11.0359C60.5108 10.4876 60.2032 10.0196 59.8316 9.63178C59.4472 9.24396 59.0115 8.93639 58.4989 8.72242C57.9864 8.49508 57.4481 8.3881 56.8587 8.3881C56.2692 8.3881 55.731 8.49508 55.2184 8.70905C54.7059 8.92301 54.2702 9.23059 53.8857 9.61841C53.5141 10.0062 53.2066 10.4743 53.0015 11.0226C52.7709 11.5575 52.6684 12.1593 52.6684 12.8012Z" fill="#131936"/>
<path d="M66.2266 0.938477H69.3148V12.7602L74.7097 5.98009H78.3362L73.7486 11.7037L78.7463 19.6205H75.0429L71.5189 13.83L69.3148 16.4645V19.6205H66.2266V0.938477Z" fill="#131936"/>
<path d="M106.604 5.98145H109.717V19.6352H106.604V5.98145Z" fill="#131936"/>
<path d="M46.3761 7.53223C45.8122 6.91707 45.1459 6.43565 44.4026 6.10132C43.6338 5.75363 42.8136 5.56641 41.9679 5.56641C41.1221 5.56641 40.3148 5.74025 39.546 6.10132C38.8027 6.43565 38.1492 6.91707 37.5725 7.53223C37.4956 7.62584 37.4188 7.70608 37.3419 7.79969C37.265 7.70608 37.1881 7.61247 37.1112 7.53223C36.5474 6.91707 35.881 6.43565 35.1378 6.10132C34.3689 5.75363 33.5488 5.56641 32.7159 5.56641C31.8701 5.56641 31.0628 5.74025 30.2811 6.10132C29.5379 6.43565 28.8843 6.91707 28.3077 7.53223C27.1544 8.77591 26.5137 10.4342 26.5137 12.1994V19.6347H29.6404V12.1994C29.6404 10.3405 31.0244 8.84278 32.7159 8.84278C34.4074 8.84278 35.7913 10.3539 35.7913 12.1994V19.6347H38.918V12.1994C38.918 10.3405 40.2892 8.84278 41.9935 8.84278C43.685 8.84278 45.069 10.3539 45.069 12.1994V19.6347H48.1957V12.1994C48.1701 10.4342 47.5422 8.77591 46.3761 7.53223Z" fill="#131936"/>
<path d="M104.604 13.7771C104.323 13.2957 103.938 12.8945 103.464 12.6003C102.99 12.2927 102.439 12.0654 101.824 11.8915C101.209 11.7177 100.581 11.5706 99.9528 11.4502C99.4274 11.37 98.9789 11.2898 98.5817 11.2095C98.1972 11.1159 97.8769 11.0089 97.6206 10.8886C97.3643 10.7682 97.1849 10.6211 97.0567 10.4473C96.9286 10.2734 96.8773 10.0728 96.8773 9.81873C96.8773 9.60477 96.9286 9.40417 97.0311 9.20358C97.1336 9.00298 97.2746 8.84251 97.4796 8.69541C97.6718 8.5483 97.9281 8.44132 98.2357 8.34771C98.5432 8.26747 98.8379 8.22735 99.2736 8.24073C99.94 8.2541 100.465 8.42795 100.85 8.7489C101.234 9.06985 101.452 9.47104 101.465 9.93909H104.553C104.553 9.35068 104.451 8.78902 104.233 8.28084C104.002 7.74593 103.682 7.27787 103.246 6.89006C102.81 6.50224 102.285 6.19466 101.657 5.96732C101.029 5.73998 100.324 5.61963 99.5427 5.59288C98.5432 5.56613 97.7487 5.64637 97.0311 5.84697C96.3007 6.03419 95.7112 6.32839 95.2371 6.70284C94.763 7.07728 94.4042 7.51859 94.1735 8.04013C93.9428 8.56168 93.8147 9.13671 93.8019 9.77861C93.7891 10.2868 93.8531 10.7415 93.9685 11.1159C94.0966 11.4904 94.2632 11.8247 94.481 12.0921C94.6989 12.373 94.9552 12.6003 95.2371 12.8009C95.519 12.9881 95.8266 13.1486 96.1469 13.2823C96.4673 13.4161 96.7876 13.5097 97.108 13.5899C97.4284 13.6701 97.7487 13.737 98.0435 13.7905C98.6329 13.9242 99.1583 14.0446 99.6196 14.1516C100.081 14.2586 100.478 14.3923 100.799 14.5394C101.119 14.6865 101.362 14.847 101.529 15.0476C101.696 15.2482 101.772 15.4889 101.76 15.7831C101.747 16.3046 101.503 16.7459 101.029 17.0401C100.555 17.3343 99.8759 17.4146 98.8892 17.3878C98.5304 17.3745 98.1844 17.321 97.8769 17.214C97.5693 17.107 97.2874 16.9733 97.0567 16.7994C96.8261 16.6256 96.6339 16.425 96.5057 16.1843C96.3776 15.9569 96.3007 15.7028 96.3007 15.4488H93.2637C93.2637 15.9703 93.3662 16.4785 93.5712 17C93.7891 17.5483 94.1222 18.0431 94.5707 18.4844C95.0192 18.9257 95.5959 19.3002 96.2751 19.581C96.967 19.8618 97.7743 20.0223 98.7098 20.049C99.6453 20.0758 100.44 20.049 101.209 19.8752C101.977 19.7014 102.631 19.4339 103.182 19.0728C103.733 18.7118 104.169 18.2437 104.476 17.682C104.784 17.1204 104.95 16.4116 104.963 15.6493C105.027 14.8737 104.886 14.2586 104.604 13.7771Z" fill="#131936"/>
<path d="M83.8706 5.67339C84.2807 5.60653 84.7035 5.56641 85.1392 5.56641C86.19 5.56641 87.1639 5.75363 88.0481 6.14144C88.9323 6.51589 89.7012 7.03743 90.3419 7.6927C90.9826 8.34798 91.4824 9.11023 91.8412 9.99285C92.2 10.8755 92.3794 11.8116 92.3794 12.8145C92.3794 13.8175 92.2 14.767 91.8412 15.6362C91.4824 16.5055 90.9826 17.2811 90.3419 17.9364C89.7012 18.5916 88.9323 19.0998 88.0481 19.4876C87.1639 19.8621 86.19 20.0493 85.1264 20.0493C84.0884 20.0493 83.1273 19.8621 82.2432 19.4876C81.3718 19.1132 80.6157 18.5916 79.975 17.9364C79.3343 17.2811 78.8473 16.5188 78.4757 15.6362C78.1169 14.7536 77.9375 13.8175 77.9375 12.8145C77.9375 11.8116 78.1169 10.8755 78.4757 9.99285C78.8345 9.11023 79.3343 8.34798 79.975 7.6927C80.6157 7.03743 81.3718 6.51589 82.256 6.14144C82.7685 5.92748 83.3068 5.767 83.8706 5.67339ZM81.0386 12.8012C81.0386 13.4564 81.1411 14.0582 81.359 14.5931C81.5768 15.1414 81.8715 15.6095 82.2432 15.9973C82.6148 16.3851 83.0505 16.6927 83.5502 16.92C84.05 17.1474 84.5882 17.2544 85.1648 17.2544C85.7415 17.2544 86.2797 17.1474 86.7795 16.9334C87.2792 16.7194 87.7149 16.4119 88.0865 16.024C88.4582 15.6362 88.7529 15.1548 88.9707 14.6065C89.1886 14.0582 89.2911 13.4564 89.2911 12.8012C89.2911 12.1593 89.1886 11.5575 88.9707 11.0226C88.7529 10.4743 88.4582 10.0062 88.0865 9.61841C87.7149 9.23059 87.2792 8.92301 86.7666 8.70905C86.2669 8.48171 85.7287 8.37472 85.1648 8.37472C84.5882 8.37472 84.05 8.48171 83.5502 8.69567C83.0505 8.90964 82.6148 9.21722 82.2432 9.60503C81.8715 9.99285 81.5768 10.4609 81.359 11.0092C81.1411 11.5575 81.0386 12.1593 81.0386 12.8012Z" fill="#131936"/>
<path d="M110.001 2.46409C110.001 3.52055 109.181 4.37641 108.168 4.37641C107.156 4.37641 106.336 3.52055 106.336 2.46409C106.336 1.40762 107.156 0.551758 108.168 0.551758C109.181 0.565131 110.001 1.40762 110.001 2.46409Z" fill="#131936"/>
<path d="M13.4947 24H2.50618C1.55137 24 0.69534 23.4503 0.267323 22.5569C-0.160694 21.6636 -0.0701498 20.6156 0.506027 19.8253L6.12786 12L0.506027 4.17466C-0.0619187 3.37581 -0.152463 2.32785 0.267323 1.44309C0.69534 0.549749 1.55137 0 2.50618 0H13.4947C14.4495 0 15.3055 0.549749 15.7336 1.44309C16.1616 2.33643 16.071 3.3844 15.4948 4.17466L9.87301 11.9914L15.4948 19.8168C16.0628 20.6156 16.1533 21.6636 15.7336 22.5483C15.3055 23.4417 14.4495 24 13.4947 24ZM3.50214 20.8647H12.4905L7.99632 14.6027L3.50214 20.8647ZM3.50214 3.11811L7.99632 9.3801L12.4905 3.11811H3.50214Z" fill="url(#paint0_linear_234_508)"/>
<path opacity="0.4" d="M6.1277 11.9912L8.00439 14.6025L3.50198 20.8645L0.505859 19.8166L6.1277 11.9912Z" fill="url(#paint1_linear_234_508)"/>
<path opacity="0.4" d="M8.00586 9.38016L9.87432 11.9915L15.4961 4.16612L12.5 3.11816L8.00586 9.38016Z" fill="url(#paint2_linear_234_508)"/>
<defs>
<linearGradient id="paint0_linear_234_508" x1="16.6121" y1="24.1476" x2="-1.42703" y2="0.763451" gradientUnits="userSpaceOnUse">
<stop stop-color="#2CE9D8"/>
<stop offset="1" stop-color="#009BC8"/>
</linearGradient>
<linearGradient id="paint1_linear_234_508" x1="3.68208" y1="17.9154" x2="9.35734" y2="11.0764" gradientUnits="userSpaceOnUse">
<stop stop-color="white"/>
<stop offset="1" stop-color="#262640"/>
</linearGradient>
<linearGradient id="paint2_linear_234_508" x1="7.03312" y1="13.1845" x2="11.9408" y2="7.07919" gradientUnits="userSpaceOnUse">
<stop stop-color="#262640"/>
<stop offset="1" stop-color="white"/>
</linearGradient>
</defs>
</svg>
