<svg width="48" height="48" viewBox="0 0 48 48" fill="none" xmlns="http://www.w3.org/2000/svg">
<path d="M41 24C42.1046 24 43 23.1046 43 22V14.176C43.0446 11.3676 40.8083 9.05256 38 9H17C15.8954 9 15 9.89543 15 11C15 12.1046 15.8954 13 17 13H38C38.5981 13.0541 39.0428 13.577 39 14.176V22C39 23.1046 39.8954 24 41 24Z" fill="#004C7F"/>
<path d="M21.5007 37C21.7768 37 22.0007 37.2239 22.0007 37.5V41.5C22.0007 41.7761 21.7768 42 21.5007 42H18.0007C16.8961 42 16.0007 42.8954 16.0007 44C16.0007 45.1046 16.8961 46 18.0007 46H30.0007C31.1052 46 32.0007 45.1046 32.0007 44C32.0007 42.8954 31.1052 42 30.0007 42H26.5007C26.2245 42 26.0007 41.7761 26.0007 41.5V37.5C26.0007 37.2239 26.2245 37 26.5007 37H31.0007C31.5529 37 32.0007 36.5523 32.0007 36V31.778C32.0006 31.268 32.0713 30.7605 32.2107 30.27C32.2952 29.9685 32.2336 29.6448 32.0443 29.3954C31.855 29.146 31.5598 28.9996 31.2467 29H10.0007C9.44837 29 9.00066 28.5523 9.00066 28V25C9.00066 23.8954 8.10522 23 7.00066 23C5.89609 23 5.00066 23.8954 5.00066 25V31.824C4.95607 34.6324 7.19235 36.9474 10.0007 37H21.5007Z" fill="#004C7F"/>
<path fill-rule="evenodd" clip-rule="evenodd" d="M10.3344 19.5H3.66644C1.88781 19.4671 0.471459 18.0007 0.500437 16.222V3.778C0.471459 1.99931 1.88781 0.53285 3.66644 0.5H10.3344C12.1131 0.53285 13.5294 1.99931 13.5004 3.778V16.222C13.5294 18.0007 12.1131 19.4671 10.3344 19.5ZM3.666 3.5C3.61 3.5 3.5 3.608 3.5 3.778V16.222C3.5 16.392 3.61 16.5 3.666 16.5H10.334C10.39 16.5 10.5 16.392 10.5 16.222V3.778C10.5 3.608 10.39 3.5 10.334 3.5H3.666Z" fill="#3279C6"/>
<path fill-rule="evenodd" clip-rule="evenodd" d="M34.5004 31.778C34.4715 29.9993 35.8878 28.5329 37.6664 28.5H44.3344C46.1131 28.5329 47.5294 29.9993 47.5004 31.778V44.5C47.4514 46.2013 46.0359 47.5426 44.3344 47.5H37.6664C35.965 47.5426 34.5495 46.2013 34.5004 44.5V31.778ZM44.5 42V31.778C44.5 31.6 44.4 31.5 44.334 31.5H37.666C37.61 31.5 37.5 31.608 37.5 31.778V42C37.5 42.2761 37.7239 42.5 38 42.5H44C44.2761 42.5 44.5 42.2761 44.5 42Z" fill="#3279C6"/>
</svg>
