<svg width="48" height="48" viewBox="0 0 48 48" fill="none" xmlns="http://www.w3.org/2000/svg">
<rect width="48" height="48" fill="white"/>
<path d="M35.0009 42.8774C34.9987 39.3443 32.0152 36.481 28.3349 36.48H25.5009C25.2247 36.48 25.0009 36.2651 25.0009 36V27.84C25.0009 26.811 24.4291 25.8603 23.5009 25.3458C22.5727 24.8313 21.4291 24.8313 20.5009 25.3458C19.5727 25.8603 19.0009 26.811 19.0009 27.84V40.2528C19.0007 40.4394 18.8879 40.6089 18.7116 40.6876C18.5353 40.7662 18.3276 40.7396 18.1789 40.6195L16.4229 39.2083C15.5392 38.1892 13.9624 38.0509 12.9009 38.8992C11.8394 39.7475 11.6952 41.2612 12.5789 42.2803L17.2369 47.6563C17.4263 47.8734 17.7059 47.9992 18.0009 48H34.0009C34.5532 48 35.0009 47.5702 35.0009 47.04V42.8774Z" fill="#004C7F"/>
<path d="M11 11.5196H13C13.8284 11.5196 14.5 10.8749 14.5 10.0796C14.5 9.28436 13.8284 8.63965 13 8.63965H11C10.1716 8.63965 9.5 9.28436 9.5 10.0796C9.5 10.8749 10.1716 11.5196 11 11.5196Z" fill="#3279C6"/>
<path d="M14.2706 5.62923C14.9566 6.07565 15.8896 5.90373 16.3546 5.24523C16.8197 4.58673 16.6406 3.69102 15.9546 3.24459L14.2966 2.16747C13.853 1.87388 13.2793 1.83131 12.7939 2.05596C12.3085 2.2806 11.9859 2.73794 11.9489 3.25403C11.9118 3.77011 12.1659 4.26563 12.6146 4.55211L14.2706 5.62923Z" fill="#3279C6"/>
<path d="M32.8897 5.87691C33.1892 5.87682 33.4818 5.79055 33.7297 5.62923L35.3857 4.55211C35.8344 4.26563 36.0886 3.77011 36.0515 3.25403C36.0144 2.73794 35.6918 2.2806 35.2064 2.05596C34.721 1.83131 34.1474 1.87388 33.7037 2.16747L32.0457 3.24459C31.4997 3.59961 31.2592 4.25541 31.4532 4.86054C31.6472 5.46567 32.2302 5.87814 32.8897 5.87691Z" fill="#3279C6"/>
<path d="M38.5 10.0816C38.5 9.28631 37.8284 8.6416 37 8.6416H35C34.1716 8.6416 33.5 9.28631 33.5 10.0816C33.5 10.8769 34.1716 11.5216 35 11.5216H37C37.8284 11.5216 38.5 10.8769 38.5 10.0816Z" fill="#3279C6"/>
<path d="M24.0003 12.021C26.6303 12.021 28.7623 9.97423 28.7623 7.44945C28.7623 4.92467 26.6303 2.87793 24.0003 2.87793C21.3703 2.87793 19.2383 4.92467 19.2383 7.44945C19.2383 9.97423 21.3703 12.021 24.0003 12.021Z" fill="#3279C6"/>
<path d="M31.4999 22.0798C31.7963 22.0776 32.077 21.9517 32.269 21.735C32.461 21.5182 32.5453 21.232 32.4999 20.9509C31.9096 16.8831 28.2861 13.8555 24.0079 13.8555C19.7297 13.8555 16.1062 16.8831 15.5159 20.9509C15.4706 21.232 15.5549 21.5182 15.7469 21.735C15.9389 21.9517 16.2196 22.0776 16.5159 22.0798H31.4999Z" fill="#3279C6"/>
<path d="M6.00197 23.6791C7.84329 23.6791 9.33597 22.2461 9.33597 20.4785C9.33597 18.7108 7.84329 17.2778 6.00197 17.2778C4.16065 17.2778 2.66797 18.7108 2.66797 20.4785C2.66797 22.2461 4.16065 23.6791 6.00197 23.6791Z" fill="#004C7F"/>
<path d="M6.0011 24.96C3.15024 24.9603 0.693268 26.8864 0.123096 29.568C0.0669315 29.8531 0.146505 30.1475 0.340037 30.3704C0.53357 30.5934 0.820793 30.7216 1.1231 30.72H10.8871C11.1894 30.7216 11.4766 30.5934 11.6702 30.3704C11.8637 30.1475 11.9433 29.8531 11.8871 29.568C11.3163 26.8836 8.85496 24.9567 6.0011 24.96Z" fill="#004C7F"/>
<path d="M42.002 23.6791C43.8433 23.6791 45.336 22.2461 45.336 20.4785C45.336 18.7108 43.8433 17.2778 42.002 17.2778C40.1607 17.2778 38.668 18.7108 38.668 20.4785C38.668 22.2461 40.1607 23.6791 42.002 23.6791Z" fill="#004C7F"/>
<path d="M42.0011 24.96C39.1502 24.9603 36.6933 26.8864 36.1231 29.568C36.0669 29.8531 36.1465 30.1475 36.34 30.3704C36.5336 30.5934 36.8208 30.7216 37.1231 30.72H46.8951C47.1974 30.7216 47.4846 30.5934 47.6782 30.3704C47.8717 30.1475 47.9513 29.8531 47.8951 29.568C47.3237 26.8808 44.858 24.953 42.0011 24.96Z" fill="#004C7F"/>
</svg>
