<svg width="49" height="48" viewBox="0 0 49 48" fill="none" xmlns="http://www.w3.org/2000/svg">
<path d="M8.20001 18.6001C8.38886 18.8519 8.68525 19.0001 9.00001 19.0001C9.31476 19.0001 9.61115 18.8519 9.80001 18.6001L12.8 14.6001C13.0273 14.297 13.0638 13.8916 12.8944 13.5528C12.725 13.2141 12.3788 13.0001 12 13.0001H11V9.49805C11 8.39348 11.8954 7.49805 13 7.49805H17V8.49805C17 8.8765 17.2137 9.22251 17.552 9.39205C17.6913 9.4612 17.8445 9.49746 18 9.49805C18.2164 9.49805 18.4269 9.42788 18.6 9.29805L22.6 6.29805C22.8518 6.1092 23 5.81281 23 5.49805C23 5.1833 22.8518 4.88691 22.6 4.69805L18.6 1.69805C18.297 1.47079 17.8916 1.43423 17.5528 1.60363C17.214 1.77302 17 2.11928 17 2.49805V3.49805H13C9.6863 3.49805 7.00001 6.18434 7.00001 9.49805V13.0001H6.00001C5.62123 13.0001 5.27497 13.2141 5.10558 13.5528C4.93619 13.8916 4.97274 14.297 5.20001 14.6001L8.20001 18.6001Z" fill="#3279C6"/>
<path fill-rule="evenodd" clip-rule="evenodd" d="M42.2573 4.06218C43.6745 4.24785 44.9946 4.88373 46.0233 5.87618C47.2866 7.08173 48.0014 8.75192 48.0013 10.4982C47.9607 13.8672 45.389 16.6648 42.0353 16.9882L26.8353 17.0002H26.8013C25.265 16.9868 23.7862 16.4145 22.6413 15.3902C21.6911 14.4206 21.1782 13.105 21.2213 11.7482C21.2234 10.187 21.9295 8.71009 23.1433 7.72818C23.9062 7.10303 24.8251 6.69782 25.8013 6.55618C25.9923 6.52493 26.1481 6.38626 26.2013 6.20018C27.3163 2.49926 30.7361 -0.0248629 34.6013 0.000184748C37.523 -0.00182494 40.2576 1.43805 41.9093 3.84818C41.9893 3.96601 42.116 4.0439 42.2573 4.06218ZM26.8331 14.0004H41.8471C42.7381 13.9773 43.5806 13.5893 44.1773 12.9272C44.774 12.2651 45.0725 11.387 45.0031 10.4984C45.0029 9.56677 44.6205 8.67607 43.9451 8.03437C43.2145 7.32421 42.2205 6.95154 41.2031 7.00637C40.6138 7.01859 40.0697 6.69208 39.8031 6.16637C38.8096 4.21106 36.7963 2.98525 34.6031 3.00037C31.6323 2.94907 29.1312 5.21134 28.8851 8.17237C28.8587 8.60655 28.6451 9.00787 28.2997 9.27229C27.9543 9.53671 27.5112 9.63817 27.0851 9.55037C26.9179 9.517 26.7477 9.50025 26.5771 9.50037C26.0109 9.49754 25.4615 9.69201 25.0231 10.0504C24.5053 10.4618 24.2034 11.087 24.2031 11.7484C24.2031 13.8384 26.2151 14.0004 26.8331 14.0004Z" fill="#3279C6"/>
<path fill-rule="evenodd" clip-rule="evenodd" d="M26 20C28.2091 20 30 21.7909 30 24V37.834C30 40.0431 28.2091 41.834 26 41.834H17.5C17.2239 41.834 17 42.0579 17 42.334V43.5C17 43.7761 17.2239 44 17.5 44H23C24.1046 44 25 44.8954 25 46C25 47.1046 24.1046 48 23 48H7C5.89543 48 5 47.1046 5 46C5 44.8954 5.89543 44 7 44H12.5C12.7761 44 13 43.7761 13 43.5V42.334C13 42.0579 12.7761 41.834 12.5 41.834H4C1.79086 41.834 0 40.0431 0 37.834V24C0 21.7909 1.79086 20 4 20H26ZM26 24.5C26 24.2239 25.7761 24 25.5 24H4.5C4.22386 24 4 24.2239 4 24.5V35.5C4 35.7761 4.22386 36 4.5 36H25.5C25.7761 36 26 35.7761 26 35.5V24.5Z" fill="#004C7F"/>
</svg>
